<?xml version="1.0" standalone="no"?>
<!DOCTYPE svg PUBLIC "-//W3C//DTD SVG 20010904//EN"
 "http://www.w3.org/TR/2001/REC-SVG-20010904/DTD/svg10.dtd">
<svg version="1.0" xmlns="http://www.w3.org/2000/svg"
 width="700.000000pt" height="350.000000pt" viewBox="0 0 700.000000 350.000000"
 preserveAspectRatio="xMidYMid meet">
<metadata>
Created by potrace 1.15, written by Peter Selinger 2001-2017
</metadata>
<g transform="translate(0.000000,350.000000) scale(0.100000,-0.100000)"
fill="#000000" stroke="#000000" stroke-width="1">
<!-- <path d="M210 1805 l0 -1375 1763 2 1762 3 -1757 2 -1758 3 0 1365 0 1365
3285 0 3285 0 0 -1365 0 -1365 -882 -3 -883 -2 888 -3 887 -2 0 1375 0 1375
-3295 0 -3295 0 0 -1375z"/> -->
<path d="M669.93 407.77L902.93 407.77L902.93 44L32.66 44L32.66 407.77L496.3 407.77"></path>
</g>
</svg>
