<!--?xml version="1.0" encoding="UTF-8" standalone="no"?-->

<svg version="1.1" xmlns="http://www.w3.org/2000/svg" xmlns:xlink="http://www.w3.org/1999/xlink" preserveAspectRatio="xMidYMid meet" viewBox="0 0 672.756 336.378" width="672.76" height="336.38" style="">
<defs>
<path d="M 356.89,299.08 L 23.25,299.08 L 23.25,37.3 L 649.5,37.3 L 649.5,299.08 L 481.83,299.08" id="bWpFOa8fR" class="MLuqOdsN_0"></path>
<path d="M 28.04,-131.81 L 28.04,468.19 L 653.04,468.19 L 653.04,-131.81 L 28.04,-131.81" id="ai6cHvDsQ" class="MLuqOdsN_1"></path>
<clipPath id="clipc4aZR2N6G">
  <use xlink:href="#ai6cHvDsQ" opacity="1"></use>
</clipPath>
</defs>
<g><g><g>
  <use xlink:href="#bWpFOa8fR" opacity="1" fill="#2237fd" fill-opacity="0"></use>
  <g><use xlink:href="#bWpFOa8fR" opacity="1" fill-opacity="0" stroke="#d3be86" stroke-width="15.12" stroke-opacity="1"></use></g></g><g><g clip-path="url(#clipc4aZR2N6G)" opacity="1">
</g></g></g></g>
<g transform="translate(-12.000000,350.000000) scale(0.100000,-0.100000)" fill="#3B3C3E" stroke="none">
  <path d="M569 2743 c0 -2 -1 -33 -2 -70 l0 -68 46 -5 c51 -6 91 -31 122 -76
  15 -23 621 -1505 649 -1587 5 -15 15 -17 66 -15 l60 3 45 130 c129 372 381
  1059 390 1062 6 2 118 -266 251 -594 l240 -598 59 0 60 0 34 95 c282 794 478
  1336 499 1380 29 62 91 134 136 157 17 9 56 24 86 33 l55 16 3 67 3 67 -336 2
  c-184 0 -341 1 -347 2 -9 1 -13 -20 -13 -69 l0 -70 69 -8 c81 -9 123 -30 150
  -76 17 -30 18 -41 9 -95 -10 -54 -311 -910 -333 -946 -5 -8 -11 -12 -13 -10
  -13 17 -399 993 -403 1022 -13 74 38 108 161 108 l75 0 2 60 c0 33 1 65 2 70
  1 7 -139 11 -429 11 -290 0 -430 -4 -429 -11 1 -5 2 -37 3 -70 l1 -60 48 0
  c108 0 173 -43 231 -152 l35 -65 -165 -454 c-91 -250 -170 -454 -174 -454 -5
  0 -98 223 -207 495 -212 531 -222 565 -177 606 17 15 41 20 118 24 l96 5 0 68
  0 68 -388 2 c-213 1 -387 1 -388 0z" class="xpoDnBoy_2"></path>
  <path d="M3926 2740 c-1 -3 0 -35 2 -72 3 -63 6 -68 26 -68 47 0 117 -33 159
  -75 36 -37 89 -143 380 -766 185 -398 337 -730 337 -737 0 -7 -31 -75 -69
  -151 -143 -284 -215 -384 -318 -438 -68 -36 -114 -46 -148 -33 -24 9 -24 12
  -22 99 2 100 -9 125 -73 169 -39 26 -134 31 -179 7 -108 -55 -132 -206 -53
  -324 91 -136 319 -162 516 -59 77 40 208 169 268 263 79 121 142 260 495 1080
  189 440 355 817 368 837 43 66 125 114 214 127 l44 6 0 68 0 68 -373 0 -373 0
  0 -68 0 -68 68 -7 c84 -8 144 -30 176 -64 21 -23 24 -34 23 -107 l0 -82 -169
  -405 c-92 -223 -178 -430 -190 -460 -13 -30 -27 -56 -31 -57 -5 -2 -118 232
  -251 520 -171 367 -243 533 -243 558 0 73 43 97 180 101 l85 3 0 68 0 68 -423
  2 c-233 1 -425 0 -426 -3z" class="xpoDnBoy_3"></path>
  <path d="M3535 1441 c-200 -91 -168 -394 46 -440 217 -47 370 216 221 381 -48
  53 -102 78 -172 78 -32 0 -72 -8 -95 -19z" class="xpoDnBoy_4"></path>
  <path d="M6055 1441 c-85 -39 -134 -115 -135 -209 0 -136 97 -236 230 -235
  110 0 196 67 223 174 14 54 14 66 0 114 -19 66 -72 131 -127 156 -53 24 -139
  24 -191 0z" class="xpoDnBoy_5"></path>
</g>
<style data-made-with="vivus-instant">.MLuqOdsN_0{stroke-dasharray:1652 1654;stroke-dashoffset:1653;animation:MLuqOdsN_draw 1000ms ease-in 0ms forwards;}.MLuqOdsN_1{stroke-dasharray:2450 2452;stroke-dashoffset:2451;animation:MLuqOdsN_draw 1000ms ease-in 0ms forwards;}@keyframes MLuqOdsN_draw{100%{stroke-dashoffset:0;}}@keyframes MLuqOdsN_fade{0%{stroke-opacity:1;}94.44444444444444%{stroke-opacity:1;}100%{stroke-opacity:0;}}</style></svg>
