<?xml version="1.0" standalone="no"?>
<!DOCTYPE svg PUBLIC "-//W3C//DTD SVG 20010904//EN"
 "http://www.w3.org/TR/2001/REC-SVG-20010904/DTD/svg10.dtd">
<svg version="1.0" xmlns="http://www.w3.org/2000/svg"
 width="800.000000pt" height="400.000000pt" viewBox="0 0 800.000000 400.000000"
 preserveAspectRatio="xMidYMid meet">
<metadata>
Created by potrace 1.15, written by Peter Selinger 2001-2017
</metadata>
<g transform="translate(0.000000,400.000000) scale(0.100000,-0.100000)"
fill="#000">
<path d="M1971 3426 c-19 -19 -66 -52 -105 -72 -39 -21 -89 -52 -111 -69 -22
-18 -74 -53 -115 -80 -41 -26 -106 -72 -144 -103 -39 -31 -109 -83 -156 -116
-48 -34 -168 -121 -266 -195 -98 -74 -221 -166 -272 -204 -134 -100 -338 -286
-405 -370 -68 -84 -149 -246 -167 -332 -7 -33 -13 -107 -13 -165 0 -103 1
-106 40 -185 54 -107 112 -161 221 -204 74 -30 90 -33 150 -28 37 3 97 15 135
27 63 20 67 23 67 51 0 42 -21 46 -119 21 -109 -29 -118 -28 -205 8 -86 36
-131 79 -177 170 -29 58 -32 74 -32 145 0 45 6 105 13 135 19 83 80 206 143
289 85 113 304 306 522 460 50 35 146 107 214 160 68 53 162 122 209 154 46
31 107 77 135 101 29 24 93 70 142 102 50 32 108 72 130 90 45 36 85 58 91 51
3 -2 -16 -59 -41 -126 -25 -67 -70 -204 -100 -304 -30 -100 -69 -218 -85 -262
-41 -108 -234 -728 -277 -890 -19 -71 -65 -229 -103 -350 -38 -121 -89 -303
-115 -405 -25 -102 -55 -217 -66 -257 -13 -45 -19 -93 -17 -130 3 -55 4 -58
30 -61 34 -4 81 42 109 107 24 54 21 92 -8 106 l-21 11 52 204 c29 113 83 297
118 410 36 113 71 232 78 263 13 55 30 77 30 37 0 -31 68 -289 96 -362 46
-121 213 -369 296 -440 98 -84 243 -139 401 -154 178 -16 494 97 717 257 52
38 167 139 256 226 186 183 243 262 379 526 80 155 89 167 114 167 15 0 48 11
74 23 28 15 57 22 75 19 32 -4 112 31 172 77 43 32 163 91 186 91 9 0 38 -8
65 -17 l49 -18 -49 -50 c-60 -62 -91 -146 -91 -246 0 -93 28 -137 173 -278
221 -216 435 -487 495 -627 12 -28 36 -82 53 -120 48 -104 92 -275 97 -376 4
-93 15 -115 52 -103 41 13 41 23 10 325 -15 153 -13 637 5 925 8 137 15 277
15 311 l0 61 63 -14 c71 -17 210 -11 264 12 19 8 69 21 111 29 42 8 102 24
132 35 97 34 196 44 367 37 87 -4 223 -9 302 -12 177 -8 304 5 560 57 130 27
242 43 340 49 154 10 185 16 401 81 154 47 183 61 178 91 -6 43 -29 43 -149 5
-244 -77 -289 -87 -439 -97 -160 -11 -191 -16 -395 -59 -204 -43 -321 -54
-498 -47 -509 21 -555 19 -691 -26 -34 -11 -99 -28 -146 -39 -47 -10 -110 -25
-140 -34 -65 -18 -105 -18 -185 -1 l-60 12 2 97 c2 106 51 458 88 632 13 61
29 146 35 190 12 84 57 258 90 353 14 40 36 72 76 113 46 46 55 61 52 85 -2
22 -9 30 -27 32 -32 5 -136 -96 -163 -158 -27 -61 -95 -312 -103 -380 -4 -30
-18 -109 -32 -175 -13 -66 -39 -223 -58 -349 -19 -126 -36 -229 -37 -230 -2
-1 -14 -7 -28 -15 -30 -17 -188 -61 -247 -68 -23 -3 -75 3 -115 12 -50 11 -93
15 -138 10 -59 -5 -72 -3 -150 30 -108 45 -159 46 -242 5 -33 -16 -61 -30 -63
-30 -1 0 -5 9 -8 20 -8 32 -52 26 -79 -10 -22 -31 -64 -60 -171 -120 l-59 -32
25 48 c65 130 106 487 74 639 -62 289 -220 521 -427 625 -203 102 -367 131
-548 96 -110 -21 -124 -29 -120 -69 3 -28 6 -32 33 -31 17 1 55 7 85 15 32 8
101 14 165 13 95 -1 121 -5 185 -29 200 -74 308 -153 410 -300 27 -40 50 -76
50 -80 0 -3 21 -61 46 -128 38 -101 47 -138 51 -213 11 -169 -31 -402 -93
-526 -20 -40 -38 -75 -40 -77 -5 -5 -112 50 -125 65 -17 20 -49 17 -107 -11
-62 -30 -72 -30 -103 -7 -13 10 -35 23 -49 29 -24 11 -145 26 -225 27 -39 1
-40 0 -40 -34 l0 -35 111 -16 c71 -10 123 -23 145 -36 19 -11 51 -26 71 -33
34 -10 44 -9 93 14 l54 25 53 -28 c29 -14 59 -30 65 -34 22 -13 -120 -280
-230 -434 -70 -98 -323 -342 -442 -425 -146 -102 -362 -195 -529 -228 -141
-28 -346 30 -469 133 -65 54 -236 311 -275 415 -31 78 -95 329 -106 412 -5 34
0 63 19 119 29 87 31 107 9 119 -13 7 -6 37 51 223 36 118 80 252 96 299 46
129 84 243 123 375 74 245 168 491 202 526 36 38 31 83 -11 87 -24 2 -38 -5
-64 -32z m2617 -1478 c23 -6 66 -8 94 -5 45 6 73 0 208 -44 l156 -51 -3 -57
c-2 -31 -10 -180 -18 -332 -9 -151 -16 -371 -16 -487 0 -117 -2 -212 -3 -212
-2 0 -18 35 -37 77 -33 77 -128 235 -149 248 -6 3 -29 32 -52 63 -70 96 -201
242 -318 355 -61 59 -118 123 -125 141 -8 19 -19 37 -25 41 -30 19 17 164 72
221 59 61 104 70 216 42z"/>
</g>
</svg>
